<svg xmlns="http://www.w3.org/2000/svg" width="48" height="48" fill-rule="evenodd" clip-rule="evenodd" baseProfile="basic"><path fill="#ededed" d="M22.903 3.286a2.247 2.247 0 0 1 2.193 0l16.807 9.434A2.12 2.12 0 0 1 43 14.566v18.867c0 .762-.418 1.466-1.097 1.847l-16.807 9.434a2.247 2.247 0 0 1-2.193 0L6.096 35.28A2.122 2.122 0 0 1 5 33.434V14.567c0-.762.418-1.466 1.097-1.847l16.806-9.434z"/><path fill="#434345" d="M23.987 46.221a6.986 6.986 0 0 1-3.165-.757c-2.22-1.127-5.118-2.899-7.921-4.613-1.973-1.206-3.836-2.346-5.297-3.157A7.01 7.01 0 0 1 4 31.572V16.627a6.982 6.982 0 0 1 3.699-6.173c3.733-1.989 9.717-5.234 12.878-7.01a7.038 7.038 0 0 1 6.844 0c3.576 2.007 10.369 6.064 14.252 8.513A4.962 4.962 0 0 1 44 16.182V32c0 2.4-.859 4.048-2.553 4.895-.944.531-2.628 1.576-4.578 2.787-3.032 1.882-6.806 4.225-9.564 5.705a7.022 7.022 0 0 1-3.318.834zM21.556 5.188C18.384 6.97 12.382 10.226 8.64 12.22A4.982 4.982 0 0 0 6 16.627v14.945c0 1.814.987 3.49 2.576 4.373 1.498.832 3.378 1.981 5.369 3.199 2.77 1.693 5.634 3.445 7.783 4.536a5.012 5.012 0 0 0 4.631-.056c2.703-1.451 6.447-3.775 9.456-5.643 1.97-1.223 3.671-2.279 4.696-2.854C41.835 34.464 42 33.109 42 32V16.182a2.975 2.975 0 0 0-1.392-2.532c-3.862-2.435-10.613-6.467-14.165-8.461a4.964 4.964 0 0 0-4.887-.001z"/><path fill="#434345" d="m22.977 41.654-.057-13.438a7 7 0 0 1 3.701-6.204l12.01-6.416c1.998-1.068 4.414.38 4.414 2.646v14.73a3 3 0 0 1-1.426 2.554l-14.068 8.668c-1.994 1.23-4.564-.198-4.574-2.54z"/><path fill="#ededed" d="M28.799 26.274c.123-.063.225.014.227.176l.013 1.32c.552-.219 1.032-.278 1.467-.177.095.024.136.153.098.306l-.291 1.169a.506.506 0 0 1-.132.233.338.338 0 0 1-.077.057.176.176 0 0 1-.114.019c-.199-.045-.671-.148-1.413.228-.778.395-1.051 1.071-1.046 1.573.007.601.315.783 1.377.802 1.416.023 2.027.643 2.042 2.067.016 1.402-.733 2.905-1.876 3.826l.025 1.308c.001.157-.1.338-.225.4l-.775.445c-.123.063-.225-.014-.227-.172l-.013-1.286c-.664.276-1.334.342-1.763.17-.082-.032-.117-.152-.084-.288l.28-1.181a.493.493 0 0 1 .138-.246.31.31 0 0 1 .072-.053.154.154 0 0 1 .124-.013c.462.155 1.053.082 1.622-.206.722-.365 1.206-1.102 1.198-1.834-.007-.664-.366-.939-1.241-.946-1.113.002-2.151-.216-2.168-1.855-.014-1.35.688-2.753 1.799-3.641l-.013-1.319c-.001-.162.098-.34.225-.405l.751-.477z"/><path fill="#4da925" d="m37.226 34.857-3.704 2.185a.164.164 0 0 1-.244-.143v-1.252c0-.113.061-.217.16-.273l3.704-2.185a.166.166 0 0 1 .246.145v1.248a.314.314 0 0 1-.162.275"/></svg>