<?xml version="1.0" encoding="UTF-8"?>
<svg xmlns="http://www.w3.org/2000/svg" xmlns:xlink="http://www.w3.org/1999/xlink" viewBox="0 0 48 48" width="48px" height="48px">
<g id="surface204005045">
<path style="fill-rule:nonzero;fill:rgb(39.607844%,60.392159%,82.352942%);fill-opacity:1;stroke-width:40;stroke-linecap:butt;stroke-linejoin:round;stroke:rgb(100%,100%,100%);stroke-opacity:1;stroke-miterlimit:10;" d="M 209.416966 56.504325 C 210.953233 59.230658 211.883648 62.346466 211.883648 65.072799 L 211.883648 160.927193 C 211.883648 163.653525 210.931596 166.769334 209.330416 169.495667 L 209.049128 169.885143 C 207.621049 172.416738 205.56548 174.688681 203.293537 175.986935 L 121.56847 223.935769 C 116.851482 226.662102 109.126873 226.662102 104.431522 223.935769 L 22.684818 175.986935 C 20.434511 174.688681 18.357306 172.416738 16.950864 169.885143 L 16.647938 169.495667 C 15.068396 166.769334 14.116344 163.653525 14.116344 160.927193 L 14.116344 65.072799 C 14.116344 59.511946 17.989467 52.739389 22.684818 50.013057 L 104.431522 2.064222 C 109.126873 -0.66211 116.851482 -0.66211 121.56847 2.064222 L 203.293537 50.013057 C 205.56548 51.419498 207.729237 53.669805 209.330416 56.309587 Z M 184.468859 116.678381 L 191.717442 116.678381 L 191.717442 124.208252 L 199.074212 124.208252 L 199.074212 116.678381 L 206.430983 116.678381 L 206.430983 109.23506 L 199.074212 109.23506 L 199.074212 101.79174 L 191.739079 101.79174 L 191.739079 109.23506 L 184.468859 109.23506 Z M 156.967519 116.678381 L 164.32429 116.678381 L 164.32429 124.208252 L 171.572873 124.208252 L 171.572873 116.678381 L 178.908006 116.678381 L 178.908006 109.23506 L 171.572873 109.23506 L 171.572873 101.79174 L 164.32429 101.79174 L 164.32429 109.23506 L 156.967519 109.23506 Z M 112.999996 179.946609 C 137.190789 179.860058 158.395598 166.682784 169.971693 146.711315 L 170.079881 146.516577 L 141.539938 129.769105 L 141.431751 129.855656 C 135.784347 139.830571 125.138667 146.430027 112.999996 146.516577 C 100.861324 146.516577 90.215645 139.830571 84.568241 129.855656 C 81.647171 124.857379 80.045991 119.123426 80.045991 112.999996 C 80.045991 94.543157 94.824445 79.483414 112.999996 79.483414 C 125.138667 79.569965 135.784347 86.169421 141.539938 96.230886 L 170.079881 79.483414 L 169.885143 79.202126 C 158.482148 59.425396 137.298977 46.139933 112.999996 46.053383 C 76.648894 46.053383 47.091986 76.086317 47.091986 112.999996 C 47.091986 125.333406 50.359258 136.82295 56.114849 146.711315 C 67.517843 166.574596 88.809203 179.946609 112.999996 179.946609 Z M 112.999996 179.946609 " transform="matrix(0.180531,0,0,0.180531,3.6,3.6)"/>
<path style="fill-rule:nonzero;fill:rgb(0%,26.666668%,50.980395%);fill-opacity:1;stroke-width:40;stroke-linecap:butt;stroke-linejoin:round;stroke:rgb(100%,100%,100%);stroke-opacity:1;stroke-miterlimit:10;" d="M 112.999996 112.999996 L 141.431751 129.855656 C 135.784347 139.830571 125.160305 146.430027 112.999996 146.516577 C 100.861324 146.516577 90.215645 139.830571 84.568241 129.855656 Z M 112.999996 112.999996 " transform="matrix(0.180531,0,0,0.180531,3.6,3.6)"/>
<path style="fill-rule:nonzero;fill:rgb(0%,26.666668%,50.980395%);fill-opacity:1;stroke-width:40;stroke-linecap:butt;stroke-linejoin:round;stroke:rgb(100%,100%,100%);stroke-opacity:1;stroke-miterlimit:10;" d="M 203.315174 175.986935 L 121.56847 223.935769 C 116.851482 226.662102 109.14851 226.662102 104.431522 223.935769 L 22.684818 175.986935 C 20.434511 174.688681 18.357306 172.416738 16.950864 169.885143 L 56.114849 146.711315 C 67.517843 166.574596 88.809203 179.946609 112.999996 179.946609 C 137.190789 179.860058 158.395598 166.682784 169.971693 146.711315 L 209.049128 169.885143 C 207.642686 172.416738 205.56548 174.688681 203.315174 175.986935 Z M 203.315174 175.986935 " transform="matrix(0.180531,0,0,0.180531,3.6,3.6)"/>
<path style="fill-rule:nonzero;fill:rgb(34.509805%,52.549022%,71.764708%);fill-opacity:1;stroke-width:40;stroke-linecap:butt;stroke-linejoin:round;stroke:rgb(100%,100%,100%);stroke-opacity:1;stroke-miterlimit:10;" d="M 112.999996 79.483414 L 112.999996 112.999996 L 84.568241 129.855656 C 81.647171 124.857379 80.045991 119.123426 80.045991 112.999996 C 80.045991 94.543157 94.824445 79.483414 112.999996 79.483414 Z M 112.999996 0.00865413 L 112.999996 46.053383 C 76.648894 46.053383 47.091986 76.086317 47.091986 112.999996 C 47.091986 125.333406 50.359258 136.82295 56.114849 146.711315 L 16.950864 169.885143 L 16.647938 169.495667 C 15.068396 166.769334 14.116344 163.653525 14.116344 160.927193 L 14.116344 65.072799 C 14.116344 59.511946 17.989467 52.739389 22.684818 50.013057 L 104.431522 2.064222 C 106.790016 0.701056 109.884187 0.00865413 112.999996 0.00865413 Z M 16.950864 169.885143 C 18.357306 172.416738 20.434511 174.688681 22.684818 175.986935 C 20.434511 174.688681 18.357306 172.416738 16.950864 169.885143 Z M 16.950864 169.885143 " transform="matrix(0.180531,0,0,0.180531,3.6,3.6)"/>
<path style="fill-rule:nonzero;fill:rgb(0%,23.137255%,44.313726%);fill-opacity:1;stroke-width:40;stroke-linecap:butt;stroke-linejoin:round;stroke:rgb(100%,100%,100%);stroke-opacity:1;stroke-miterlimit:10;" d="M 112.999996 112.999996 L 112.999996 146.516577 C 100.861324 146.516577 90.215645 139.830571 84.568241 129.855656 Z M 112.999996 112.999996 " transform="matrix(0.180531,0,0,0.180531,3.6,3.6)"/>
<path style="fill-rule:nonzero;fill:rgb(0%,23.137255%,44.313726%);fill-opacity:1;stroke-width:40;stroke-linecap:butt;stroke-linejoin:round;stroke:rgb(100%,100%,100%);stroke-opacity:1;stroke-miterlimit:10;" d="M 56.114849 146.711315 C 67.517843 166.574596 88.809203 179.946609 112.999996 179.946609 L 112.999996 225.991338 C 109.884187 225.991338 106.790016 225.298936 104.431522 223.935769 L 22.684818 175.986935 C 20.434511 174.688681 18.378943 172.416738 16.950864 169.885143 Z M 56.114849 146.711315 " transform="matrix(0.180531,0,0,0.180531,3.6,3.6)"/>
<path style="fill-rule:nonzero;fill:rgb(0%,34.901962%,61.176473%);fill-opacity:1;stroke-width:40;stroke-linecap:butt;stroke-linejoin:round;stroke:rgb(100%,100%,100%);stroke-opacity:1;stroke-miterlimit:10;" d="M 209.416966 56.504325 C 210.953233 59.230658 211.883648 62.346466 211.883648 65.072799 L 211.883648 160.927193 C 211.883648 163.653525 210.953233 166.769334 209.352054 169.495667 L 209.049128 169.885143 L 169.971693 146.711315 L 141.431751 129.855656 L 112.999996 112.999996 L 170.058243 79.483414 L 209.330416 56.309587 Z M 178.908006 116.678381 L 178.908006 109.23506 L 171.572873 109.23506 L 171.572873 101.79174 L 164.32429 101.79174 L 164.32429 109.23506 L 156.967519 109.23506 L 156.967519 116.678381 L 164.32429 116.678381 L 164.32429 124.208252 L 171.572873 124.208252 L 171.572873 116.678381 Z M 206.409345 116.678381 L 206.409345 109.23506 L 199.074212 109.23506 L 199.074212 101.79174 L 191.739079 101.79174 L 191.739079 109.23506 L 184.468859 109.23506 L 184.468859 116.678381 L 191.717442 116.678381 L 191.717442 124.208252 L 199.074212 124.208252 L 199.074212 116.678381 Z M 206.409345 116.678381 " transform="matrix(0.180531,0,0,0.180531,3.6,3.6)"/>
<path style="fill-rule:nonzero;fill:rgb(87.058824%,87.058824%,87.058824%);fill-opacity:1;stroke-width:40;stroke-linecap:butt;stroke-linejoin:round;stroke:rgb(100%,100%,100%);stroke-opacity:1;stroke-miterlimit:10;" d="M 178.908006 116.678381 L 171.572873 116.678381 L 171.572873 124.208252 L 164.32429 124.208252 L 164.32429 116.678381 L 156.967519 116.678381 L 156.967519 112.999996 L 178.908006 112.999996 Z M 178.908006 116.678381 " transform="matrix(0.180531,0,0,0.180531,3.6,3.6)"/>
<path style="fill-rule:nonzero;fill:rgb(87.058824%,87.058824%,87.058824%);fill-opacity:1;stroke-width:40;stroke-linecap:butt;stroke-linejoin:round;stroke:rgb(100%,100%,100%);stroke-opacity:1;stroke-miterlimit:10;" d="M 206.409345 116.678381 L 199.074212 116.678381 L 199.074212 124.208252 L 191.717442 124.208252 L 191.717442 116.678381 L 184.468859 116.678381 L 184.468859 112.999996 L 206.409345 112.999996 Z M 206.409345 116.678381 " transform="matrix(0.180531,0,0,0.180531,3.6,3.6)"/>
<path style="fill-rule:nonzero;fill:rgb(0%,30.19608%,53.333336%);fill-opacity:1;stroke-width:40;stroke-linecap:butt;stroke-linejoin:round;stroke:rgb(100%,100%,100%);stroke-opacity:1;stroke-miterlimit:10;" d="M 211.883648 112.999996 L 211.883648 160.927193 C 211.883648 163.653525 210.953233 166.769334 209.352054 169.495667 L 209.049128 169.885143 L 169.971693 146.711315 L 141.431751 129.855656 L 112.999996 112.999996 L 156.967519 112.999996 L 156.967519 116.678381 L 164.32429 116.678381 L 164.32429 124.208252 L 171.572873 124.208252 L 171.572873 116.678381 L 178.908006 116.678381 L 178.908006 112.999996 L 184.468859 112.999996 L 184.468859 116.678381 L 191.717442 116.678381 L 191.717442 124.208252 L 199.074212 124.208252 L 199.074212 116.678381 L 206.409345 116.678381 L 206.409345 112.999996 Z M 211.883648 112.999996 " transform="matrix(0.180531,0,0,0.180531,3.6,3.6)"/>
<path style=" stroke:none;fill-rule:nonzero;fill:rgb(39.607844%,60.392159%,82.352942%);fill-opacity:1;" d="M 41.40625 13.800781 L 41.390625 13.765625 C 41.101562 13.289062 40.710938 12.882812 40.300781 12.628906 L 25.546875 3.972656 C 24.695312 3.480469 23.300781 3.480469 22.453125 3.972656 L 7.695312 12.628906 C 6.847656 13.121094 6.148438 14.34375 6.148438 15.347656 L 6.148438 32.652344 C 6.148438 33.144531 6.320312 33.707031 6.605469 34.199219 L 6.660156 34.269531 C 6.914062 34.726562 7.289062 35.136719 7.695312 35.371094 L 22.453125 44.027344 C 23.300781 44.519531 24.695312 44.519531 25.546875 44.027344 L 40.300781 35.371094 C 40.710938 35.136719 41.082031 34.726562 41.339844 34.269531 L 41.390625 34.199219 C 41.679688 33.707031 41.851562 33.144531 41.851562 32.652344 L 41.851562 15.347656 C 41.851562 14.855469 41.683594 14.292969 41.40625 13.800781 Z M 36.902344 24.664062 L 36.902344 23.320312 L 38.214844 23.320312 L 38.214844 21.976562 L 39.539062 21.976562 L 39.539062 23.320312 L 40.867188 23.320312 L 40.867188 24.664062 L 39.539062 24.664062 L 39.539062 26.023438 L 38.210938 26.023438 L 38.210938 24.664062 Z M 31.9375 24.664062 L 31.9375 23.320312 L 33.265625 23.320312 L 33.265625 21.976562 L 34.574219 21.976562 L 34.574219 23.320312 L 35.898438 23.320312 L 35.898438 24.664062 L 34.574219 24.664062 L 34.574219 26.023438 L 33.265625 26.023438 L 33.265625 24.664062 Z M 24 36.085938 C 19.632812 36.085938 15.789062 33.671875 13.730469 30.085938 C 12.691406 28.300781 12.101562 26.226562 12.101562 24 C 12.101562 17.335938 17.4375 11.914062 24 11.914062 C 28.386719 11.929688 32.210938 14.328125 34.269531 17.898438 L 34.304688 17.949219 L 29.152344 20.972656 C 28.113281 19.15625 26.191406 17.964844 24 17.949219 C 20.71875 17.949219 18.050781 20.667969 18.050781 24 C 18.050781 25.105469 18.339844 26.140625 18.867188 27.042969 C 19.886719 28.84375 21.808594 30.050781 24 30.050781 C 26.191406 30.035156 28.113281 28.84375 29.132812 27.042969 L 29.152344 27.027344 L 34.304688 30.050781 L 34.285156 30.085938 C 32.195312 33.691406 28.367188 36.070312 24 36.085938 Z M 24 36.085938 "/>
<path style=" stroke:none;fill-rule:nonzero;fill:rgb(0%,26.666668%,50.980395%);fill-opacity:1;" d="M 18.867188 27.042969 L 24 24 L 29.132812 27.042969 C 28.113281 28.84375 26.195312 30.035156 24 30.050781 C 21.808594 30.050781 19.886719 28.84375 18.867188 27.042969 Z M 18.867188 27.042969 "/>
<path style=" stroke:none;fill-rule:nonzero;fill:rgb(0%,26.666668%,50.980395%);fill-opacity:1;" d="M 41.339844 34.269531 C 41.085938 34.726562 40.710938 35.136719 40.304688 35.371094 L 25.546875 44.027344 C 24.695312 44.519531 23.304688 44.519531 22.453125 44.027344 L 7.695312 35.371094 C 7.289062 35.136719 6.914062 34.726562 6.660156 34.269531 L 13.730469 30.085938 C 15.789062 33.671875 19.632812 36.085938 24 36.085938 C 28.367188 36.070312 32.195312 33.691406 34.285156 30.085938 Z M 41.339844 34.269531 "/>
<path style=" stroke:none;fill-rule:nonzero;fill:rgb(34.509805%,52.549022%,71.764708%);fill-opacity:1;" d="M 24 17.949219 C 20.71875 17.949219 18.050781 20.667969 18.050781 24 C 18.050781 25.105469 18.339844 26.140625 18.867188 27.042969 C 19.886719 28.84375 21.808594 30.050781 24 30.050781 C 21.808594 30.050781 19.886719 28.84375 18.867188 27.042969 L 24 24 Z M 24 3.601562 C 23.4375 3.601562 22.878906 3.726562 22.453125 3.972656 L 7.695312 12.628906 C 6.847656 13.121094 6.148438 14.34375 6.148438 15.347656 L 6.148438 32.652344 C 6.148438 33.144531 6.320312 33.707031 6.605469 34.199219 L 6.660156 34.269531 C 6.914062 34.726562 7.289062 35.136719 7.695312 35.371094 L 22.453125 44.027344 C 22.875 44.273438 23.4375 44.398438 24 44.398438 C 23.4375 44.398438 22.875 44.273438 22.453125 44.027344 L 7.695312 35.371094 C 7.289062 35.136719 6.914062 34.726562 6.660156 34.269531 L 13.730469 30.085938 C 12.691406 28.300781 12.101562 26.226562 12.101562 24 C 12.101562 17.335938 17.4375 11.914062 24 11.914062 Z M 24 3.601562 "/>
<path style=" stroke:none;fill-rule:nonzero;fill:rgb(0%,23.137255%,44.313726%);fill-opacity:1;" d="M 24 24 L 18.867188 27.042969 C 19.886719 28.84375 21.808594 30.050781 24 30.050781 Z M 24 24 "/>
<path style=" stroke:none;fill-rule:nonzero;fill:rgb(0%,23.137255%,44.313726%);fill-opacity:1;" d="M 13.730469 30.085938 L 6.660156 34.269531 C 6.917969 34.726562 7.289062 35.136719 7.695312 35.371094 L 22.453125 44.027344 C 22.878906 44.273438 23.4375 44.398438 24 44.398438 L 24 36.085938 C 19.632812 36.085938 15.789062 33.671875 13.730469 30.085938 Z M 13.730469 30.085938 "/>
<path style=" stroke:none;fill-rule:nonzero;fill:rgb(0%,34.901962%,61.176473%);fill-opacity:1;" d="M 41.40625 13.800781 L 41.390625 13.765625 L 34.300781 17.949219 L 29.152344 20.972656 L 24 24 L 29.132812 27.042969 L 34.285156 30.085938 L 41.339844 34.269531 L 41.394531 34.199219 C 41.683594 33.707031 41.851562 33.144531 41.851562 32.652344 L 41.851562 15.347656 C 41.851562 14.855469 41.683594 14.292969 41.40625 13.800781 Z M 35.898438 24.664062 L 34.574219 24.664062 L 34.574219 26.023438 L 33.265625 26.023438 L 33.265625 24.664062 L 31.9375 24.664062 L 31.9375 23.320312 L 33.265625 23.320312 L 33.265625 21.976562 L 34.574219 21.976562 L 34.574219 23.320312 L 35.898438 23.320312 Z M 40.863281 24.664062 L 39.539062 24.664062 L 39.539062 26.023438 L 38.210938 26.023438 L 38.210938 24.664062 L 36.902344 24.664062 L 36.902344 23.320312 L 38.214844 23.320312 L 38.214844 21.976562 L 39.539062 21.976562 L 39.539062 23.320312 L 40.863281 23.320312 Z M 40.863281 24.664062 "/>
<path style=" stroke:none;fill-rule:nonzero;fill:rgb(87.058824%,87.058824%,87.058824%);fill-opacity:1;" d="M 35.898438 24 L 31.9375 24 L 31.9375 24.664062 L 33.265625 24.664062 L 33.265625 26.023438 L 34.574219 26.023438 L 34.574219 24.664062 L 35.898438 24.664062 Z M 35.898438 24 "/>
<path style=" stroke:none;fill-rule:nonzero;fill:rgb(87.058824%,87.058824%,87.058824%);fill-opacity:1;" d="M 40.863281 24 L 36.902344 24 L 36.902344 24.664062 L 38.210938 24.664062 L 38.210938 26.023438 L 39.539062 26.023438 L 39.539062 24.664062 L 40.863281 24.664062 Z M 40.863281 24 "/>
<path style=" stroke:none;fill-rule:nonzero;fill:rgb(0%,30.19608%,53.333336%);fill-opacity:1;" d="M 41.851562 24 L 40.863281 24 L 40.863281 24.664062 L 39.539062 24.664062 L 39.539062 26.023438 L 38.210938 26.023438 L 38.210938 24.664062 L 36.902344 24.664062 L 36.902344 24 L 35.898438 24 L 35.898438 24.664062 L 34.574219 24.664062 L 34.574219 26.023438 L 33.265625 26.023438 L 33.265625 24.664062 L 31.9375 24.664062 L 31.9375 24 L 24 24 L 29.132812 27.042969 L 34.285156 30.085938 L 41.339844 34.269531 L 41.394531 34.199219 C 41.683594 33.707031 41.851562 33.144531 41.851562 32.652344 Z M 41.851562 24 "/>
</g>
</svg>
