<svg xmlns="http://www.w3.org/2000/svg" width="48" height="48"><path style="fill-rule:nonzero;fill:#659ad2;fill-opacity:1;stroke-width:40;stroke-linecap:butt;stroke-linejoin:round;stroke:#fff;stroke-opacity:1;stroke-miterlimit:10" d="M209.417 56.504c1.536 2.727 2.467 5.842 2.467 8.569v95.854c0 2.727-.952 5.842-2.554 8.569l-.28.39c-1.429 2.53-3.485 4.803-5.756 6.1l-81.726 47.95c-4.717 2.726-12.441 2.726-17.136 0l-81.747-47.95c-2.25-1.297-4.328-3.57-5.734-6.1l-.303-.39c-1.58-2.727-2.532-5.842-2.532-8.569V65.073c0-5.561 3.873-12.334 8.569-15.06l81.747-47.949c4.695-2.726 12.42-2.726 17.136 0l81.726 47.95c2.271 1.405 4.435 3.656 6.036 6.296Zm-24.948 60.174h7.248v7.53h7.357v-7.53h7.357v-7.443h-7.357v-7.443h-7.335v7.443h-7.27Zm-27.501 0h7.356v7.53h7.249v-7.53h7.335v-7.443h-7.335v-7.443h-7.249v7.443h-7.356ZM113 179.947c24.19-.087 45.396-13.264 56.972-33.236l.108-.194-28.54-16.748-.108.087A32.852 32.852 0 0 1 113 146.516c-12.139 0-22.784-6.685-28.432-16.66-2.92-4.999-4.522-10.733-4.522-16.856 0-18.457 14.778-33.517 32.954-33.517 12.139.087 22.784 6.686 28.54 16.748l28.54-16.748-.195-.28C158.482 59.424 137.3 46.14 113 46.052c-36.351 0-65.908 30.033-65.908 66.947 0 12.333 3.267 23.823 9.023 33.711 11.403 19.864 32.694 33.236 56.885 33.236Zm0 0" transform="translate(3.6 3.6) scale(.18053)"/><path style="fill-rule:nonzero;fill:#004482;fill-opacity:1;stroke-width:40;stroke-linecap:butt;stroke-linejoin:round;stroke:#fff;stroke-opacity:1;stroke-miterlimit:10" d="m113 113 28.432 16.856c-5.648 9.975-16.272 16.574-28.432 16.66-12.139 0-22.784-6.685-28.432-16.66Zm90.315 62.987-81.747 47.949c-4.717 2.726-12.42 2.726-17.136 0l-81.747-47.95c-2.25-1.297-4.328-3.57-5.734-6.1l39.164-23.175c11.403 19.864 32.694 33.236 56.885 33.236 24.19-.087 45.396-13.264 56.972-33.236l39.077 23.174c-1.406 2.532-3.484 4.804-5.734 6.102Zm0 0" transform="translate(3.6 3.6) scale(.18053)"/><path style="fill-rule:nonzero;fill:#5886b7;fill-opacity:1;stroke-width:40;stroke-linecap:butt;stroke-linejoin:round;stroke:#fff;stroke-opacity:1;stroke-miterlimit:10" d="M113 79.483V113l-28.432 16.856c-2.92-4.999-4.522-10.733-4.522-16.856 0-18.457 14.778-33.517 32.954-33.517ZM113 .01v46.044c-36.351 0-65.908 30.033-65.908 66.947 0 12.333 3.267 23.823 9.023 33.711L16.95 169.885l-.303-.39c-1.58-2.726-2.532-5.841-2.532-8.568V65.073c0-5.561 3.873-12.334 8.569-15.06l81.747-47.949C106.79.701 109.884.01 113 .01ZM16.95 169.885c1.407 2.532 3.485 4.804 5.735 6.102-2.25-1.298-4.328-3.57-5.734-6.102Zm0 0" transform="translate(3.6 3.6) scale(.18053)"/><path style="fill-rule:nonzero;fill:#003b71;fill-opacity:1;stroke-width:40;stroke-linecap:butt;stroke-linejoin:round;stroke:#fff;stroke-opacity:1;stroke-miterlimit:10" d="M113 113v33.517c-12.139 0-22.784-6.686-28.432-16.661Zm-56.885 33.711c11.403 19.864 32.694 33.236 56.885 33.236v46.044c-3.116 0-6.21-.692-8.568-2.055l-81.747-47.95c-2.25-1.297-4.306-3.57-5.734-6.1Zm0 0" transform="translate(3.6 3.6) scale(.18053)"/><path style="fill-rule:nonzero;fill:#00599c;fill-opacity:1;stroke-width:40;stroke-linecap:butt;stroke-linejoin:round;stroke:#fff;stroke-opacity:1;stroke-miterlimit:10" d="M209.417 56.504c1.536 2.727 2.467 5.842 2.467 8.569v95.854c0 2.727-.93 5.842-2.532 8.569l-.303.39-39.077-23.175-28.54-16.855L113 113l57.058-33.517L209.33 56.31Zm-30.509 60.174v-7.443h-7.335v-7.443h-7.249v7.443h-7.356v7.443h7.356v7.53h7.249v-7.53Zm27.501 0v-7.443h-7.335v-7.443h-7.335v7.443h-7.27v7.443h7.248v7.53h7.357v-7.53Zm0 0" transform="translate(3.6 3.6) scale(.18053)"/><path style="fill-rule:nonzero;fill:#dedede;fill-opacity:1;stroke-width:40;stroke-linecap:butt;stroke-linejoin:round;stroke:#fff;stroke-opacity:1;stroke-miterlimit:10" d="M178.908 116.678h-7.335v7.53h-7.249v-7.53h-7.356V113h21.94Zm27.502 0h-7.336v7.53h-7.357v-7.53h-7.248V113h21.94Zm0 0" transform="translate(3.6 3.6) scale(.18053)"/><path style="fill-rule:nonzero;fill:#004d88;fill-opacity:1;stroke-width:40;stroke-linecap:butt;stroke-linejoin:round;stroke:#fff;stroke-opacity:1;stroke-miterlimit:10" d="M211.884 113v47.927c0 2.727-.93 5.842-2.532 8.569l-.303.39-39.077-23.175-28.54-16.855L113 113h43.968v3.678h7.356v7.53h7.249v-7.53h7.335V113h5.56v3.678h7.25v7.53h7.356v-7.53h7.335V113Zm0 0" transform="translate(3.6 3.6) scale(.18053)"/><path style="stroke:none;fill-rule:nonzero;fill:#659ad2;fill-opacity:1" d="m41.406 13.8-.015-.034c-.29-.477-.68-.883-1.09-1.137L25.547 3.973c-.852-.493-2.246-.493-3.094 0L7.695 12.629c-.847.492-1.547 1.715-1.547 2.719v17.304c0 .493.172 1.055.457 1.547l.055.07c.254.458.63.868 1.035 1.102l14.758 8.656c.848.493 2.242.493 3.094 0L40.3 35.371c.41-.234.781-.644 1.039-1.101l.05-.07c.29-.493.462-1.055.462-1.548V15.348c0-.493-.168-1.055-.446-1.547Zm-4.504 10.864V23.32h1.313v-1.343h1.324v1.343h1.328v1.344H39.54v1.36h-1.328v-1.36Zm-4.965 0V23.32h1.329v-1.343h1.308v1.343h1.324v1.344h-1.324v1.36h-1.308v-1.36ZM24 36.086c-4.367 0-8.21-2.414-10.27-6A12.041 12.041 0 0 1 12.102 24c0-6.664 5.335-12.086 11.898-12.086 4.387.016 8.21 2.414 10.27 5.984l.035.051-5.153 3.024A5.968 5.968 0 0 0 24 17.949c-3.281 0-5.95 2.719-5.95 6.051 0 1.105.29 2.14.817 3.043A5.899 5.899 0 0 0 24 30.051a5.93 5.93 0 0 0 5.133-3.008l.02-.016 5.152 3.024-.02.035c-2.09 3.605-5.918 5.984-10.285 6Zm0 0"/><path style="stroke:none;fill-rule:nonzero;fill:#004482;fill-opacity:1" d="M18.867 27.043 24 24l5.133 3.043A5.926 5.926 0 0 1 24 30.051a5.899 5.899 0 0 1-5.133-3.008ZM41.34 34.27c-.254.457-.63.867-1.035 1.101l-14.758 8.656c-.852.493-2.242.493-3.094 0L7.695 35.371c-.406-.234-.78-.644-1.035-1.101l7.07-4.184c2.06 3.586 5.903 6 10.27 6 4.367-.016 8.195-2.395 10.285-6Zm0 0"/><path style="stroke:none;fill-rule:nonzero;fill:#5886b7;fill-opacity:1" d="M24 17.95c-3.281 0-5.95 2.718-5.95 6.05 0 1.105.29 2.14.817 3.043L24 24Zm0-14.348c-.563 0-1.121.125-1.547.37L7.695 12.63c-.847.492-1.547 1.715-1.547 2.719v17.304c0 .493.172 1.055.457 1.547l.055.07c.254.458.63.868 1.035 1.102l14.758 8.656c.422.246.985.371 1.547.371-.563 0-1.125-.125-1.547-.37L7.695 35.37c-.406-.234-.78-.644-1.035-1.101l7.07-4.184A12.041 12.041 0 0 1 12.102 24c0-6.664 5.335-12.086 11.898-12.086Zm0 0"/><path style="stroke:none;fill-rule:nonzero;fill:#003b71;fill-opacity:1" d="m24 24-5.133 3.043A5.899 5.899 0 0 0 24 30.051Zm-10.27 6.086L6.66 34.27c.258.457.63.867 1.035 1.101l14.758 8.656c.426.246.985.371 1.547.371v-8.312c-4.367 0-8.21-2.414-10.27-6Zm0 0"/><path style="stroke:none;fill-rule:nonzero;fill:#00599c;fill-opacity:1" d="m41.406 13.8-.015-.034-7.09 4.183-5.149 3.024L24 24l5.133 3.043 5.152 3.043 7.055 4.184.055-.07c.289-.493.457-1.055.457-1.548V15.348c0-.493-.168-1.055-.446-1.547Zm-5.508 10.864h-1.324v1.36h-1.308v-1.36h-1.328V23.32h1.328v-1.343h1.308v1.343h1.324Zm4.965 0H39.54v1.36h-1.328v-1.36h-1.309V23.32h1.313v-1.343h1.324v1.343h1.324Zm0 0"/><path style="stroke:none;fill-rule:nonzero;fill:#dedede;fill-opacity:1" d="M35.898 24h-3.96v.664h1.328v1.36h1.308v-1.36h1.324Zm4.965 0h-3.96v.664h1.308v1.36h1.328v-1.36h1.324Zm0 0"/><path style="stroke:none;fill-rule:nonzero;fill:#004d88;fill-opacity:1" d="M41.852 24h-.989v.664H39.54v1.36h-1.328v-1.36h-1.309V24h-1.004v.664h-1.324v1.36h-1.308v-1.36h-1.328V24H24l5.133 3.043 5.152 3.043 7.055 4.184.055-.07c.289-.493.457-1.055.457-1.548Zm0 0"/></svg>